<?xml version="1.0" encoding="utf-8"?>
<!-- Svg Vector Icons : http://www.sfont.cn -->
<!DOCTYPE svg PUBLIC "-//W3C//DTD SVG 1.1//EN" "http://www.w3.org/Graphics/SVG/1.1/DTD/svg11.dtd">
<svg version="1.1" xmlns="http://www.w3.org/2000/svg" xmlns:xlink="http://www.w3.org/1999/xlink" x="0px" y="0px" viewBox="0 0 1000 1000" enable-background="new 0 0 1000 1000" xml:space="preserve">
<metadata> Svg Vector Icons : http://www.sfont.cn </metadata>
<g><path d="M780,570L780,570h140l0,0h70L850,360L710,570H780z"/><path d="M220,430L220,430H80l0,0H10l140,210l140-210H220z"/><path d="M500,815c-70,0-175-35-210-87.5l-70,70c70,70,175,122.5,280,122.5c245,0,420-192.5,420-420l-105,0C815,675,675,815,500,815z"/><path d="M500,185c70,0,175,35,210,87.5l70-70C710,132.5,605,80,500,80C255,80,80,272.5,80,500h105C185,325,325,185,500,185z"/></g>
</svg>